# xmcd CD database file
#
# Track frame offsets:
#	150
#	18218
#	36713
#	67774
#	85790
#	108475
#	132502
#	151443
#
# Disc length: 2471 seconds
#
# Revision: 0
# Processed by: cddbd v1.5.2PL0 Copyright (c) Steve Scherf et al.
# Submitted via: CDex 1.79
#
DISCID=6309a508
DTITLE=Bogus - Cap d'Or
DYEAR=2016
DGENRE=Jazz
TTITLE0=Cosm
TTITLE1=Sintra Stories
TTITLE2=Bagamoyo
TTITLE3=Bright Light Sea Sight
TTITLE4=Captain Cu-Cu
TTITLE5=Pelican Valley
TTITLE6=Tel Aviv Express
TTITLE7=Cap d'Or
EXTD=YEAR: 2016
EXTT0=
EXTT1=
EXTT2=
EXTT3=
EXTT4=
EXTT5=
EXTT6=
EXTT7=
PLAYORDER=
